Coordinates
version=1
nRows=17
nColumns=40
inDegrees=yes

Units are S.I. units (second, meters, Newtons, ...)
If the header above contains a line with 'inDegrees', this indicates whether rotational values are in degrees (yes) or radians (no).

endheader
time	pelvis_tilt	pelvis_list	pelvis_rotation	pelvis_tx	pelvis_ty	pelvis_tz	hip_flexion_r	hip_adduction_r	hip_rotation_r	knee_angle_r	knee_angle_r_beta	ankle_angle_r	subtalar_angle_r	mtp_angle_r	hip_flexion_l	hip_adduction_l	hip_rotation_l	knee_angle_l	knee_angle_l_beta	ankle_angle_l	subtalar_angle_l	mtp_angle_l	lumbar_extension	lumbar_bending	lumbar_rotation	arm_flex_r	arm_add_r	arm_rot_r	elbow_flex_r	pro_sup_r	wrist_flex_r	wrist_dev_r	arm_flex_l	arm_add_l	arm_rot_l	elbow_flex_l	pro_sup_l	wrist_flex_l	wrist_dev_l
      2.05000000	    -12.06736552	      3.37554108	     -1.12003288	     -0.37451582	      0.86413893	     -0.80419222	     44.76639239	     -1.59333222	     -9.38195253	     56.61072244	      0.98804350	     11.48128249	      0.00000000	      0.00000000	     37.62397429	     -9.89825225	      2.16587041	    102.80113046	      1.79421820	    -22.24805096	      0.00000000	      0.00000000	     -9.14650353	      1.88712948	     -1.74780882	     89.79910765	    -16.38091429	     40.71460108	     61.68640484	     87.02266728	      0.00000000	      0.00000000	     89.55368355	     -8.54222908	     36.13810000	     54.84597126	     83.92666912	      0.00000000	      0.00000000
      2.05500000	    -12.16218455	      3.27531681	     -1.08992364	     -0.37501432	      0.86280523	     -0.80419676	     45.02846833	     -1.52509167	     -9.42505266	     56.88271098	      0.99279059	     11.67340038	      0.00000000	      0.00000000	     37.83425451	    -10.02376206	      2.30122630	    102.92778467	      1.79642873	    -22.13605842	      0.00000000	      0.00000000	     -9.09129166	      2.01348339	     -1.80911828	     89.81298128	    -16.28920652	     41.09228450	     61.53422236	     83.86215363	      0.00000000	      0.00000000	     89.55294332	     -8.50522243	     35.93181301	     54.78800149	     80.59853124	      0.00000000	      0.00000000
      2.06000000	    -12.21682507	      3.34920211	     -1.05094563	     -0.37553183	      0.86150118	     -0.80429728	     45.32689040	     -1.68720125	     -9.50782892	     57.28980996	      0.99989581	     11.76051117	      0.00000000	      0.00000000	     37.98176882	     -9.93823796	      2.33552504	    103.03150434	      1.79823898	    -22.37269774	      0.00000000	      0.00000000	     -9.13673160	      1.92339733	     -1.84354984	     89.80736399	    -16.28002376	     40.39812941	     61.61234770	     87.19800542	      0.00000000	      0.00000000	     89.59809087	     -8.53582746	     36.11448833	     54.89898943	     81.50146350	      0.00000000	      0.00000000
      2.06500000	    -12.25997803	      3.42173077	     -1.07427322	     -0.37593682	      0.86028879	     -0.80430747	     45.56485370	     -1.76039108	     -9.46879174	     57.62776285	      1.00579420	     11.94851049	      0.00000000	      0.00000000	     38.06269401	     -9.93588189	      2.29647544	    103.09889977	      1.79941526	    -22.31562204	      0.00000000	      0.00000000	     -9.15454735	      1.85999948	     -1.85828889	     89.81673076	    -16.25467810	     40.66010656	     61.61565775	     84.78751479	      0.00000000	      0.00000000	     89.60919870	     -8.49728019	     35.96033643	     54.87485439	     79.26514717	      0.00000000	      0.00000000
      2.07000000	    -12.36325679	      3.51455784	     -1.09952199	     -0.37642935	      0.85896864	     -0.80429816	     45.91021738	     -1.83847326	     -9.38115060	     58.00413568	      1.01236315	     12.06474997	      0.00000000	      0.00000000	     38.24796663	     -9.87759013	      2.26462653	    103.15398410	      1.80037666	    -22.72849879	      0.00000000	      0.00000000	     -9.13790745	      1.73315576	     -1.78085461	     89.81520747	    -16.31619914	     40.18227708	     61.65368985	     87.26291898	      0.00000000	      0.00000000	     89.62648761	     -8.41992166	     35.95366611	     54.98091843	     80.16051019	      0.00000000	      0.00000000
      2.07500000	    -12.38266501	      3.59206924	     -1.13807040	     -0.37693865	      0.85765890	     -0.80420460	     46.15543024	     -1.88494081	     -9.28201950	     58.34585181	      1.01832722	     12.22484649	      0.00000000	      0.00000000	     38.32836174	     -9.88043176	      2.20391794	    103.22384849	      1.80159602	    -22.92241408	      0.00000000	      0.00000000	     -9.21712309	      1.63573599	     -1.79460733	     89.81870132	    -16.27487889	     40.01438563	     61.72760200	     87.32536716	      0.00000000	      0.00000000	     89.64778647	     -8.51185270	     35.93696503	     55.20064543	     80.07097482	      0.00000000	      0.00000000
      2.08000000	    -12.42849329	      3.54121272	     -1.05455801	     -0.37740556	      0.85646189	     -0.80426489	     46.36161524	     -1.95181069	     -9.46387607	     58.64639335	      1.02357266	     12.36838428	      0.00000000	      0.00000000	     38.48219537	     -9.91949518	      2.33721423	    103.33225672	      1.80348810	    -22.94815901	      0.00000000	      0.00000000	     -9.22790290	      1.70686803	     -1.83697463	     89.82261237	    -16.23654370	     39.92720561	     61.62934848	     87.03063473	      0.00000000	      0.00000000	     89.65876836	     -8.34858325	     35.50067558	     54.91741155	     83.90855469	      0.00000000	      0.00000000
      2.08500000	    -12.47258010	      3.52319730	     -1.01558730	     -0.37785841	      0.85513725	     -0.80428950	     46.61269577	     -1.97723192	     -9.48748729	     58.99797579	      1.02970893	     12.52816957	      0.00000000	      0.00000000	     38.60507341	     -9.94688145	      2.42503289	    103.42429366	      1.80509445	    -22.96126284	      0.00000000	      0.00000000	     -9.24073397	      1.73827727	     -1.92867180	     89.82834253	    -16.18104901	     40.14793327	     61.63719296	     84.53820475	      0.00000000	      0.00000000	     89.67827693	     -8.37974726	     35.51022334	     54.87496184	     81.09620232	      0.00000000	      0.00000000
      2.09000000	    -12.60826910	      3.62777585	     -1.03642993	     -0.37840828	      0.85379679	     -0.80434678	     46.98499740	     -2.06969659	     -9.39406649	     59.33147759	      1.03552963	     12.60669153	      0.00000000	      0.00000000	     38.81146522	     -9.87253423	      2.42273983	    103.46157447	      1.80574512	    -23.44527627	      0.00000000	      0.00000000	     -9.20068182	      1.61646766	     -1.86120895	     89.82828906	    -16.21809267	     39.67508665	     61.66406195	     86.98657027	      0.00000000	      0.00000000	     89.68502973	     -8.24810510	     35.20794333	     54.91982283	     84.03665263	      0.00000000	      0.00000000
      2.09500000	    -12.68710729	      3.62438885	     -1.04732929	     -0.37872520	      0.85250530	     -0.80439157	     47.24471595	     -2.07830409	     -9.38883006	     59.64843292	      1.04106155	     12.75834202	      0.00000000	      0.00000000	     38.95120465	     -9.92341523	      2.39768774	    103.54543706	      1.80720880	    -23.50111088	      0.00000000	      0.00000000	     -9.17348634	      1.63003710	     -1.81929141	     89.82972256	    -16.22299864	     39.60856873	     61.63123419	     86.99167561	      0.00000000	      0.00000000	     89.69232715	     -8.21280138	     35.14232961	     54.94024986	     83.98260339	      0.00000000	      0.00000000
      2.10000000	    -12.75350117	      3.63613263	     -1.03117493	     -0.37913300	      0.85116484	     -0.80432401	     47.49997032	     -2.08887025	     -9.36330269	     59.95675651	      1.04644281	     12.90946142	      0.00000000	      0.00000000	     39.05672173	     -9.98559198	      2.43439104	    103.63110852	      1.80870405	    -23.39943728	      0.00000000	      0.00000000	     -9.14354775	      1.62059887	     -1.89357096	     89.83884480	    -16.10807840	     39.91226936	     61.58432430	     84.30171811	      0.00000000	      0.00000000	     89.69515512	     -8.19769694	     35.07571607	     54.90236431	     81.00730798	      0.00000000	      0.00000000
      2.10500000	    -12.80967982	      3.67740646	     -1.05960861	     -0.37956692	      0.84997026	     -0.80427554	     47.75583970	     -2.12577152	     -9.32514491	     60.25549104	      1.05165671	     13.02198062	      0.00000000	      0.00000000	     39.19771762	    -10.00541965	      2.41517658	    103.60669296	      1.80827792	    -24.26073194	      0.00000000	      0.00000000	     -9.19679628	      1.55431310	     -1.73060177	     89.83638122	    -16.37496174	     39.51673481	     61.83923086	     86.76967260	      0.00000000	      0.00000000	     89.70966036	     -8.07235990	     35.05914204	     55.08519327	     80.56719174	      0.00000000	      0.00000000
      2.11000000	    -12.87411990	      3.72791639	     -1.09078241	     -0.37994510	      0.84860844	     -0.80426667	     48.03512184	     -2.14582835	     -9.23991566	     60.61487971	      1.05792923	     13.17721385	      0.00000000	      0.00000000	     39.28045993	    -10.01946562	      2.36926266	    103.71339491	      1.81014022	    -24.08720977	      0.00000000	      0.00000000	     -9.18318936	      1.51932374	     -1.68747519	     89.83724413	    -16.26666040	     39.28951634	     61.67468915	     86.97861668	      0.00000000	      0.00000000	     89.71833658	     -8.01775733	     34.80971986	     54.90759815	     83.97879762	      0.00000000	      0.00000000
      2.11500000	    -12.95607879	      3.72159433	     -0.99008368	     -0.38043149	      0.84732851	     -0.80444608	     48.30790017	     -2.23160843	     -9.30334133	     60.94421462	      1.06367721	     13.38756405	      0.00000000	      0.00000000	     39.45772422	    -10.00054500	      2.47339961	    103.79198993	      1.81151196	    -24.13317185	      0.00000000	      0.00000000	     -9.15893898	      1.54342522	     -1.82858485	     89.84261684	    -16.22465748	     39.48872680	     61.67090775	     84.63989200	      0.00000000	      0.00000000	     89.73233924	     -8.02630463	     34.82095275	     54.84117045	     81.15049935	      0.00000000	      0.00000000
      2.12000000	    -12.99179876	      3.74447320	     -0.94561792	     -0.38091149	      0.84614655	     -0.80452656	     48.52659245	     -2.28702309	     -9.28929756	     61.23537404	      1.06875890	     13.49373014	      0.00000000	      0.00000000	     39.58181477	     -9.98460319	      2.52288229	    103.83664428	      1.81229133	    -24.48532103	      0.00000000	      0.00000000	     -9.22528505	      1.54192892	     -1.85576528	     89.84295405	    -16.14729706	     38.99310850	     61.59949926	     87.14864264	      0.00000000	      0.00000000	     89.73829302	     -8.00508026	     34.64212052	     55.02569421	     81.90812462	      0.00000000	      0.00000000
      2.12500000	    -13.04971371	      3.76797647	     -0.93598928	     -0.38125141	      0.84487054	     -0.80456032	     48.78648926	     -2.32193678	     -9.24469018	     61.57367371	      1.07466334	     13.63818831	      0.00000000	      0.00000000	     39.67620680	     -9.98815118	      2.58398409	    103.89196039	      1.81325678	    -24.61936667	      0.00000000	      0.00000000	     -9.21916787	      1.51081758	     -1.80451742	     89.84406525	    -16.19907424	     38.90558361	     61.64185987	     87.18370815	      0.00000000	      0.00000000	     89.74475699	     -7.91410401	     34.58272837	     54.97885727	     82.66045241	      0.00000000	      0.00000000
      2.13000000	    -13.09926279	      3.84190286	     -0.96979919	     -0.38159793	      0.84367458	     -0.80449609	     49.03200714	     -2.33714899	     -9.10031578	     61.86206494	      1.07969672	     13.75235306	      0.00000000	      0.00000000	     39.75925656	    -10.03100371	      2.48458632	    103.88381901	      1.81311468	    -25.20006453	      0.00000000	      0.00000000	     -9.25555985	      1.42397037	     -1.72132024	     89.84719186	    -16.35195811	     38.97822923	     61.85810735	     86.72063335	      0.00000000	      0.00000000	     89.74896310	     -7.92515178	     34.67011905	     55.29439245	     80.82219642	      0.00000000	      0.00000000
